<svg width="945" height="705" viewBox="0 0 945 705" xmlns="http://www.w3.org/2000/svg"><g fill="none" fill-rule="evenodd"><path d="M673 271c-148.77 48.234-233.139 113.767-253.106 196.6-19.966 82.833 63.371 52.319 250.013-91.541L673 271z" fill="#F18B57"/><path d="M878.703 0c-5.503 51.085-20.087 95.174-43.753 132.268-23.665 37.094-67.886 69.716-132.662 97.868-41.903 36.24-62.854 70.11-62.854 101.609 0 31.5-18.145 75.585-54.434 132.255h359V0h-65.297z" fill="#F3A328"/><path d="M944 159l-86.62 82.427c-9.554 8.983-21.679 17.037-36.375 24.161-22.044 10.688-28.782 25.97-34.201 32.146-5.42 6.175-16.091 11.601-26.117 25.974-10.026 14.372-46.434 38.84-103.958 65.766-57.524 26.925-45.097 16.622-93.223 34.764-48.126 18.142-57.317 20.277-98.887 36.604-41.57 16.327-45.514 18.946-53.9 26.62-8.386 7.676-11.8 11.197-37.953 19.218-17.434 5.348-33.884 19.042-49.347 41.082-9.207 19.477-37.621 35.65-85.242 48.516-71.431 19.301-103.038 45.698-138.488 61.635C76.056 668.537 42.826 683.899 0 704l944-.865V159z" stroke="#F5C960" fill="#F2CF81"/></g></svg>