<svg width="1074" height="695" viewBox="0 0 1074 695" xmlns="http://www.w3.org/2000/svg"><g fill="none" fill-rule="evenodd"><path d="M765 203c-168.529 54.811-264.102 129.28-286.721 223.409-22.619 94.128 71.787 59.453 283.217-104.024L765 203z" fill="#F18B57"/><path d="M977.434.47L949.37 44.57c-18.71 29.402-68.843 66.518-150.4 111.35-47.506 41.232-71.258 79.767-71.258 115.606 0 35.838-20.57 85.996-61.712 150.473h407V.47h-95.566z" fill="#F3A328"/><path d="M1073 76l-98.181 93.467c-10.83 10.186-24.573 19.32-41.23 27.398-24.987 12.12-32.624 29.449-38.767 36.451-6.142 7.003-18.238 13.156-29.603 29.453-11.364 16.298-52.631 44.043-117.833 74.575-65.202 30.533-51.117 18.85-105.666 39.421-54.55 20.572-64.968 22.993-112.087 41.507-47.118 18.514-51.588 21.484-61.093 30.187-9.505 8.703-13.376 12.696-43.019 21.791-19.762 6.064-38.407 21.592-55.934 46.585-10.436 22.086-42.642 40.424-96.62 55.015-80.965 21.886-116.79 51.819-156.972 69.89C89.207 653.787 51.542 671.207 3 694l1070-.981V76z" stroke="#F5C960" fill="#F2CF81"/></g></svg>