<?xml version="1.0" encoding="UTF-8"?>
<svg width="64px" height="64px" viewBox="0 0 64 64" version="1.1" xmlns="http://www.w3.org/2000/svg" xmlns:xlink="http://www.w3.org/1999/xlink">
    <title>ICONS</title>
    <g id="ICONS" stroke="none" stroke-width="1" fill="none" fill-rule="evenodd">
        <g id="Group-7" transform="translate(15.000000, 6.000000)">
            <rect id="Rectangle" fill="#3D7C8D" x="15" y="1" width="4" height="52" rx="2"></rect>
            <path d="M12.5043493,17 C16.8859052,17 15.9065259,16.7092043 15.9065259,11.85439 C15.9065259,6.99957561 8.02269369,0 3.64113781,0 C-0.740418059,0 0.0567402236,0.153206796 0.0567402236,5.00802114 C0.0567402236,9.86283549 8.12279342,17 12.5043493,17 Z" id="Oval" stroke="#3D7C8D" stroke-width="3"></path>
            <path d="M12.5043493,39 C16.8859052,39 15.9065259,38.7092043 15.9065259,33.85439 C15.9065259,28.9995756 8.02269369,22 3.64113781,22 C-0.740418059,22 0.0567402236,22.1532068 0.0567402236,27.0080211 C0.0567402236,31.8628355 8.12279342,39 12.5043493,39 Z" id="Oval" stroke="#3D7C8D" stroke-width="3"></path>
            <path d="M30.5043493,26 C34.8859052,26 33.9065259,25.7092043 33.9065259,20.85439 C33.9065259,15.9995756 26.0226937,9 21.6411378,9 C17.2595819,9 18.0567402,9.1532068 18.0567402,14.0080211 C18.0567402,18.8628355 26.1227934,26 30.5043493,26 Z" id="Oval" stroke="#3D7C8D" stroke-width="3" transform="translate(26.000000, 17.500000) scale(-1, 1) translate(-26.000000, -17.500000) "></path>
            <path d="M30.5043493,46 C34.8859052,46 33.9065259,45.7092043 33.9065259,40.85439 C33.9065259,35.9995756 26.0226937,29 21.6411378,29 C17.2595819,29 18.0567402,29.1532068 18.0567402,34.0080211 C18.0567402,38.8628355 26.1227934,46 30.5043493,46 Z" id="Oval" stroke="#3D7C8D" stroke-width="3" transform="translate(26.000000, 37.500000) scale(-1, 1) translate(-26.000000, -37.500000) "></path>
        </g>
    </g>
</svg>